<svg width="2560" height="210" viewBox="0 0 2560 210" fill="none" xmlns="http://www.w3.org/2000/svg">
<g clip-path="url(#clip0_1197_6363)">
<path d="M1981.16 112.56L1981.12 112.54C2166.85 163.887 2360.35 196.096 2560 206.923V301H0V206.254C199.479 194.236 394.348 160.01 576.139 111.83C799.982 52.51 1034 1 1277.3 1C1520.59 1 1756.51 52.76 1981.16 112.56Z" fill="url(#paint0_linear_1197_6363)"/>
<path d="M1981.16 113.56L1981.12 113.54C2166.85 164.887 2360.35 197.096 2560 207.923V303H0V207.254C199.479 195.236 394.348 161.01 576.139 112.83C799.982 53.51 1034 2 1277.3 2C1520.59 2 1756.51 53.76 1981.16 113.56Z" fill="url(#hero-gradient)"/>
</g>
<defs>
    <linearGradient id="paint0_linear_1197_6363" x1="0" y1="151" x2="2560" y2="151" gradientUnits="userSpaceOnUse">
        <stop stop-color="#231F20"/>
        <stop offset="0.09" stop-color="#262223"/>
        <stop offset="0.15" stop-color="#2F2C2D"/>
        <stop offset="0.22" stop-color="#403D3D"/>
        <stop offset="0.28" stop-color="#585455"/>
        <stop offset="0.33" stop-color="#767374"/>
        <stop offset="0.39" stop-color="#9B999A"/>
        <stop offset="0.44" stop-color="#C7C6C6"/>
        <stop offset="0.49" stop-color="#F9F9F9"/>
        <stop offset="0.5" stop-color="white"/>
        <stop offset="0.51" stop-color="#F9F9F9"/>
        <stop offset="0.56" stop-color="#C7C6C6"/>
        <stop offset="0.61" stop-color="#9B999A"/>
        <stop offset="0.67" stop-color="#767374"/>
        <stop offset="0.72" stop-color="#585455"/>
        <stop offset="0.78" stop-color="#403D3D"/>
        <stop offset="0.85" stop-color="#2F2C2D"/>
        <stop offset="0.91" stop-color="#262223"/>
        <stop offset="1" stop-color="#231F20"/>
    </linearGradient>
    <linearGradient id="hero-gradient" x1="0%" y1="0%" x2="0%" y2="100%" gradientUnits="userSpaceOnUse">
        <stop stop-color="#10141D"/>
        <stop offset="0.0" stop-color="#262223"/>
        <stop offset="1" stop-color="#10141D"/>
    </linearGradient>
    <clipPath id="clip0_1197_6363">
    <rect width="2560" height="302" fill="white"/>
    </clipPath>
</defs>
</svg>
