<svg width="200" height="49" viewBox="0 0 200 49" fill="none" xmlns="http://www.w3.org/2000/svg">
<path d="M15.906 26.3443V32.1206C24.7363 32.1098 31.892 24.9015 31.9028 16.0063H26.1686C26.1614 21.7129 21.5709 26.3371 15.906 26.3443H15.906Z" fill="#3BE081"/>
<path d="M15.906 42.2565C10.2811 42.2565 5.72125 37.6631 5.72125 31.9969C5.72125 26.3307 10.2811 21.7373 15.906 21.7373V16.0034C7.1339 15.9908 0.0125481 23.144 1.65609e-05 31.9806C-0.012515 40.8171 7.08852 47.9908 15.8606 48.0034H15.906V42.2565Z" fill="#0037FF"/>
<path d="M15.906 42.2564V47.9902C24.6781 47.9902 31.7893 40.8268 31.7893 31.9902H26.0908C26.0872 37.656 21.5305 42.2492 15.906 42.2564Z" fill="#00CCFF"/>
<path d="M15.906 10.2661V16C24.6781 16 31.7893 8.83656 31.7893 0H26.0908C26.0872 5.66578 21.5305 10.2589 15.906 10.2661Z" fill="#861DFF"/>
<path d="M31.8833 10.2661V16C40.6554 16 47.7666 8.83656 47.7666 0H42.0713C42.0677 5.66706 37.509 10.2607 31.8833 10.2661Z" fill="#FF8110"/>
<path fill-rule="evenodd" clip-rule="evenodd" d="M77.2221 23.9575H74.2886V45.4955H78.2562V38.5436C78.5921 38.8532 78.9631 39.1217 79.3615 39.3436C79.7807 39.549 80.214 39.7236 80.6581 39.8661C81.2234 40.0374 81.8118 40.1189 82.402 40.1077C83.3774 40.1102 84.3421 39.9031 85.2318 39.5004C86.125 39.0975 86.9286 38.5179 87.5949 37.7959C88.2882 37.0402 88.8376 36.1625 89.2156 35.2065C90.0177 33.1046 90.0177 30.7778 89.2156 28.6759C88.8368 27.7203 88.2875 26.8427 87.5949 26.0865C86.9287 25.3652 86.125 24.7866 85.2318 24.3853C84.3414 23.9816 83.3752 23.7755 82.3988 23.7812C81.7668 23.7735 81.1377 23.8672 80.5349 24.0587C80.049 24.2176 79.5764 24.4153 79.1216 24.6498C78.6851 24.8888 78.2791 25.1804 77.9126 25.5183L77.2221 23.9575ZM81.8834 36.2972C82.9487 36.3214 83.9749 35.8923 84.71 35.1151C85.4728 34.327 85.8531 33.2724 85.851 31.951C85.9066 30.7849 85.4955 29.6452 84.71 28.7869C83.9604 28.0316 82.9436 27.6072 81.8834 27.6072C80.8232 27.6072 79.8064 28.0316 79.0568 28.7869C78.2983 29.5771 77.919 30.6318 77.919 31.951C77.919 33.2702 78.2983 34.3249 79.0568 35.1151C79.7919 35.8923 80.8181 36.3214 81.8834 36.2972Z" fill="white"/>
<path d="M99.3096 40.121C98.5712 40.13 97.8381 39.9947 97.1507 39.7227C96.5086 39.464 95.9308 39.066 95.4587 38.557C94.9783 38.0317 94.6039 37.4173 94.3566 36.748C94.0803 35.9914 93.9452 35.1899 93.9579 34.3839V27.6051H91.543V24.3039H92.577C93.8433 24.3039 94.4765 23.6661 94.4765 22.3904V20.1406H97.9287V23.9676H101.378V27.6149H97.9287V34.2206C97.8848 34.7757 98.0617 35.3257 98.4204 35.7494C98.779 36.1732 99.2901 36.4361 99.8412 36.4802C99.949 36.4896 100.057 36.4896 100.165 36.4802C100.314 36.488 100.464 36.488 100.613 36.4802C100.722 36.4714 100.83 36.454 100.937 36.428C101.032 36.4029 101.124 36.3679 101.212 36.3235V39.801C101.035 39.8763 100.85 39.9343 100.661 39.9741C100.22 40.087 99.7648 40.1365 99.3096 40.121Z" fill="white"/>
<path fill-rule="evenodd" clip-rule="evenodd" d="M104.426 20.2251C104.662 21.3091 105.628 22.0723 106.729 22.0442C107.323 22.0458 107.891 21.8 108.298 21.3651C109.076 20.5795 109.192 19.3482 108.573 18.4299C107.954 17.5117 106.776 17.1647 105.764 17.6029C104.752 18.041 104.191 19.1411 104.426 20.2251ZM108.626 23.9577H104.658V39.9577H108.626V23.9577Z" fill="white"/>
<path d="M112.421 23.9575H115.355L116.045 25.5183C116.371 25.1917 116.729 24.9006 117.115 24.6498C117.49 24.4169 117.885 24.2191 118.295 24.0587C118.791 23.8686 119.317 23.7745 119.848 23.7812C120.552 23.7632 121.254 23.8738 121.919 24.1077C122.416 24.29 122.89 24.53 123.332 24.8228C123.728 25.1035 124.068 25.4569 124.334 25.8645C124.713 25.4628 125.142 25.1127 125.611 24.8228C126.083 24.5395 126.58 24.3001 127.096 24.1077C127.703 23.884 128.345 23.7733 128.992 23.7812C130.72 23.7812 132.097 24.3396 133.135 25.4498C134.172 26.56 134.687 28.2089 134.687 30.3869V39.9477H130.713V30.7363C130.757 29.9018 130.478 29.0827 129.935 28.4506C129.52 27.9659 128.931 27.6674 128.297 27.6208C127.664 27.5742 127.038 27.7835 126.558 28.2024C126.471 28.2802 126.388 28.363 126.311 28.4506C125.768 29.0823 125.49 29.902 125.536 30.7363V39.9477H121.566V30.7363C121.612 29.902 121.334 29.0823 120.791 28.4506C120.375 27.9657 119.786 27.6671 119.152 27.6205C118.517 27.574 117.891 27.7833 117.41 28.2024C117.323 28.2794 117.242 28.3623 117.167 28.4506C116.624 29.0827 116.346 29.9018 116.389 30.7363V39.9477H112.421V23.9575Z" fill="white"/>
<path fill-rule="evenodd" clip-rule="evenodd" d="M138.064 20.2211C138.301 21.3086 139.271 22.0734 140.376 22.0441C140.97 22.0457 141.537 21.7998 141.945 21.3649C142.726 20.5776 142.843 19.3423 142.223 18.4207C141.603 17.4991 140.421 17.1506 139.405 17.5902C138.39 18.0298 137.827 19.1337 138.064 20.2211ZM142.282 23.9575H138.305V39.9575H142.282V23.9575Z" fill="white"/>
<path d="M145.199 36.6432L152.1 27.7812H145.199V23.9575H157.105V27.2587L150.211 36.1404H157.455V39.964H145.199V36.6432Z" fill="white"/>
<path fill-rule="evenodd" clip-rule="evenodd" d="M164.412 39.4679C165.372 39.9023 166.413 40.1249 167.465 40.1209C168.319 40.1292 169.168 39.9787 169.968 39.6769C170.71 39.3898 171.407 38.9973 172.039 38.5111C172.634 38.0474 173.157 37.4972 173.592 36.8785C173.991 36.3236 174.311 35.7146 174.541 35.0695H170.399C170.201 35.3125 169.969 35.5239 169.708 35.6965C169.422 35.8731 169.115 36.0135 168.794 36.1144C168.362 36.2387 167.914 36.297 167.465 36.2875C166.578 36.3378 165.704 36.0525 165.015 35.4875C164.424 34.9693 164.013 34.275 163.841 33.5054H174.885C174.897 33.4216 174.909 33.328 174.921 33.2343C174.931 33.1491 174.942 33.064 174.953 32.9863C174.959 32.9465 174.964 32.9063 174.97 32.8658C174.987 32.7401 175.005 32.611 175.024 32.4801C175.046 32.3014 175.057 32.1215 175.057 31.9414C175.07 30.8056 174.865 29.678 174.454 28.6205C174.079 27.6586 173.522 26.7792 172.814 26.0311C172.127 25.3181 171.306 24.7507 170.399 24.3626C168.479 23.558 166.317 23.5769 164.412 24.4148C163.469 24.8343 162.614 25.4304 161.893 26.1716C161.163 26.9198 160.577 27.7977 160.165 28.7609C159.316 30.7949 159.316 33.0878 160.165 35.1218C160.577 36.085 161.163 36.9629 161.893 37.7111C162.614 38.4533 163.468 39.0496 164.412 39.4679ZM167.465 27.5572C169.326 27.5572 170.921 28.8938 171.261 30.7365H163.669C164.009 28.8938 165.605 27.5572 167.465 27.5572Z" fill="white"/>
<path d="M177.99 18.0474H181.958V39.9478H177.99V18.0474Z" fill="white"/>
<path d="M187.987 45.6849C187.806 45.6849 187.627 45.6783 187.452 45.6653C187.308 45.6575 187.164 45.6401 187.021 45.613C186.88 45.596 186.742 45.5609 186.609 45.5085V42.2073C187.33 42.2552 188.043 42.0459 188.626 41.6163C189.105 41.2151 189.479 40.7016 189.715 40.1208L190.058 39.2522L184.02 23.9575H188.162L192.13 34.3836L195.767 23.9575H199.909C198.781 26.8767 197.757 29.5183 196.836 31.8824C196.444 32.9012 196.058 33.9004 195.679 34.8702C195.3 35.84 194.963 36.7314 194.661 37.5314C194.36 38.3314 194.11 38.9975 193.903 39.5298C193.695 40.062 193.579 40.3755 193.524 40.4702C193.19 41.2991 192.804 42.1051 192.366 42.8832C192.038 43.4792 191.625 44.0237 191.141 44.4996C190.738 44.8968 190.256 45.2049 189.728 45.4041C189.168 45.5999 188.579 45.695 187.987 45.6849Z" fill="white"/>
<path fill-rule="evenodd" clip-rule="evenodd" d="M47.6207 28.0589C47.6207 21.4009 52.9788 16.0034 59.5883 16.0034C62.7626 16.0026 65.8071 17.2724 68.0516 19.5334C70.2962 21.7945 71.5568 24.8613 71.5559 28.0589C71.5559 34.717 66.1978 40.1144 59.5883 40.1144C52.9788 40.1144 47.6207 34.717 47.6207 28.0589ZM52.3052 31.1416C53.5488 34.0729 56.424 35.96 59.5883 35.9218V35.9316C63.8735 35.901 67.3272 32.3854 67.3128 28.0687V27.9773C67.285 24.7896 65.3524 21.9331 62.4173 20.7415C59.4821 19.5498 56.1233 20.258 53.909 22.5354C51.6947 24.8128 51.0615 28.2103 52.3052 31.1416Z" fill="white"/>
</svg>
